<?xml version="1.0" encoding="UTF-8"?>
<svg xmlns="http://www.w3.org/2000/svg" viewBox="0 0 128 128" width="128" height="128">
  <defs>
    <linearGradient id="bg" x1="0" y1="0" x2="0" y2="1">
      <stop offset="0"   stop-color="#1b2450"/>
      <stop offset="1"   stop-color="#070c22"/>
    </linearGradient>
    <linearGradient id="handset" x1="0" y1="0" x2="1" y2="1">
      <stop offset="0" stop-color="#ffd7b0"/>
      <stop offset="1" stop-color="#ff9f68"/>
    </linearGradient>
  </defs>

  <!-- Rounded app tile -->
  <rect x="4" y="4" width="120" height="120" rx="28" fill="url(#bg)"/>
  <rect x="4.5" y="4.5" width="119" height="119" rx="27.5"
        fill="none" stroke="#7d82d9" stroke-opacity="0.55" stroke-width="1.6"/>

  <!-- Signal arcs: the call travels via the phone -->
  <g fill="none" stroke="#92a593" stroke-linecap="round" stroke-width="5">
    <path d="M78 44a20 20 0 0 1 18 18"      stroke-opacity="0.95"/>
    <path d="M76 30a34 34 0 0 1 31 31"      stroke-opacity="0.55"/>
    <path d="M74 16a48 48 0 0 1 44 44"      stroke-opacity="0.25"/>
  </g>

  <!-- Handset -->
  <path fill="url(#handset)"
        d="M34.9 20.6c3.6-3.6 9.5-3.4 12.8.5l9.2 10.8c3 3.6 2.8 8.9-.5 12.2l-5.4 5.4a3.6 3.6 0 0 0-.7 4.1
           c2.6 5.4 6.1 10.4 10.4 14.7 4.3 4.3 9.3 7.8 14.7 10.4a3.6 3.6 0 0 0 4.1-.7l5.4-5.4
           c3.3-3.3 8.6-3.5 12.2-.5l10.8 9.2c3.9 3.3 4.1 9.2.5 12.8l-8.1 8.1
           c-5.2 5.2-13 6.9-19.9 4.2A88.6 88.6 0 0 1 26.6 48.6c-2.7-6.9-1-14.7 4.2-19.9z"/>
</svg>
